{
    "asset" : {
        "generator" : "Khronos glTF Blender I/O v1.8.19",
        "version" : "2.0"
    },
    "scene" : 0,
    "scenes" : [
        {
            "name" : "Scene",
            "nodes" : [
                0
            ]
        }
    ],
    "nodes" : [
        {
            "mesh" : 0,
            "name" : "Sphere.001",
            "rotation" : [
                0,
                -0.3569287657737732,
                0,
                0.9341316223144531
            ],
            "scale" : [
                0.1100621223449707,
                0.1100621223449707,
                0.1100621223449707
            ],
            "translation" : [
                0.017461910843849182,
                0.6891360878944397,
                -0.24578909575939178
            ]
        }
    ],
    "materials" : [
        {
            "doubleSided" : true,
            "name" : "Material.001",
            "pbrMetallicRoughness" : {
                "baseColorFactor" : [
                    0.8000000715255737,
                    0.6083664894104004,
                    0.03409265726804733,
                    1
                ],
                "metallicFactor" : 0,
                "roughnessFactor" : 0.5
            }
        },
        {
            "doubleSided" : true,
            "name" : "Material.002",
            "pbrMetallicRoughness" : {
                "baseColorFactor" : [
                    0.8000000715255737,
                    0.3865509331226349,
                    0.02993066981434822,
                    1
                ],
                "metallicFactor" : 0,
                "roughnessFactor" : 0.5
            }
        },
        {
            "doubleSided" : true,
            "name" : "Material.003",
            "pbrMetallicRoughness" : {
                "baseColorFactor" : [
                    0,
                    0,
                    0,
                    1
                ],
                "metallicFactor" : 0,
                "roughnessFactor" : 0.5
            }
        }
    ],
    "meshes" : [
        {
            "name" : "Sphere.003",
            "primitives" : [
                {
                    "attributes" : {
                        "POSITION" : 0,
                        "NORMAL" : 1,
                        "TEXCOORD_0" : 2
                    },
                    "indices" : 3,
                    "material" : 0
                },
                {
                    "attributes" : {
                        "POSITION" : 4,
                        "NORMAL" : 5,
                        "TEXCOORD_0" : 6
                    },
                    "indices" : 7,
                    "material" : 1
                },
                {
                    "attributes" : {
                        "POSITION" : 8,
                        "NORMAL" : 9,
                        "TEXCOORD_0" : 10
                    },
                    "indices" : 11,
                    "material" : 2
                }
            ]
        }
    ],
    "accessors" : [
        {
            "bufferView" : 0,
            "componentType" : 5126,
            "count" : 7936,
            "max" : [
                5.160321235656738,
                2.0840015411376953,
                5.344661712646484
            ],
            "min" : [
                -1.608886480331421,
                -6.0846357345581055,
                -1.684274673461914
            ],
            "type" : "VEC3"
        },
        {
            "bufferView" : 1,
            "componentType" : 5126,
            "count" : 7936,
            "type" : "VEC3"
        },
        {
            "bufferView" : 2,
            "componentType" : 5126,
            "count" : 7936,
            "type" : "VEC2"
        },
        {
            "bufferView" : 3,
            "componentType" : 5123,
            "count" : 11520,
            "type" : "SCALAR"
        },
        {
            "bufferView" : 4,
            "componentType" : 5126,
            "count" : 1984,
            "max" : [
                0.43931519985198975,
                0.5564336776733398,
                0.3804750442504883
            ],
            "min" : [
                -2.1583242416381836,
                -0.5921573638916016,
                -2.2203073501586914
            ],
            "type" : "VEC3"
        },
        {
            "bufferView" : 5,
            "componentType" : 5126,
            "count" : 1984,
            "type" : "VEC3"
        },
        {
            "bufferView" : 6,
            "componentType" : 5126,
            "count" : 1984,
            "type" : "VEC2"
        },
        {
            "bufferView" : 7,
            "componentType" : 5123,
            "count" : 2880,
            "type" : "SCALAR"
        },
        {
            "bufferView" : 8,
            "componentType" : 5126,
            "count" : 11904,
            "max" : [
                0.42359334230422974,
                2.4960784912109375,
                0.34810876846313477
            ],
            "min" : [
                -1.989304780960083,
                0.16631507873535156,
                -2.0548195838928223
            ],
            "type" : "VEC3"
        },
        {
            "bufferView" : 9,
            "componentType" : 5126,
            "count" : 11904,
            "type" : "VEC3"
        },
        {
            "bufferView" : 10,
            "componentType" : 5126,
            "count" : 11904,
            "type" : "VEC2"
        },
        {
            "bufferView" : 11,
            "componentType" : 5123,
            "count" : 17280,
            "type" : "SCALAR"
        }
    ],
    "bufferViews" : [
        {
            "buffer" : 0,
            "byteLength" : 95232,
            "byteOffset" : 0
        },
        {
            "buffer" : 0,
            "byteLength" : 95232,
            "byteOffset" : 95232
        },
        {
            "buffer" : 0,
            "byteLength" : 63488,
            "byteOffset" : 190464
        },
        {
            "buffer" : 0,
            "byteLength" : 23040,
            "byteOffset" : 253952
        },
        {
            "buffer" : 0,
            "byteLength" : 23808,
            "byteOffset" : 276992
        },
        {
            "buffer" : 0,
            "byteLength" : 23808,
            "byteOffset" : 300800
        },
        {
            "buffer" : 0,
            "byteLength" : 15872,
            "byteOffset" : 324608
        },
        {
            "buffer" : 0,
            "byteLength" : 5760,
            "byteOffset" : 340480
        },
        {
            "buffer" : 0,
            "byteLength" : 142848,
            "byteOffset" : 346240
        },
        {
            "buffer" : 0,
            "byteLength" : 142848,
            "byteOffset" : 489088
        },
        {
            "buffer" : 0,
            "byteLength" : 95232,
            "byteOffset" : 631936
        },
        {
            "buffer" : 0,
            "byteLength" : 34560,
            "byteOffset" : 727168
        }
    ],
    "buffers" : [
        {
            "byteLength" : 761728,
            "uri" : "data:application/octet-stream;base64,"
        }
    ]
}
